<?xml version="1.0" encoding="UTF-8" standalone="no"?>
<!DOCTYPE svg PUBLIC "-//W3C//DTD SVG 1.1//EN" "http://www.w3.org/Graphics/SVG/1.1/DTD/svg11.dtd">
<!-- Created with Vectornator (http://vectornator.io/) -->
<svg height="100%" stroke-miterlimit="10" style="fill-rule:nonzero;clip-rule:evenodd;stroke-linecap:round;stroke-linejoin:round;" version="1.1" viewBox="0 0 748.44 748.44" width="100%" xml:space="preserve" xmlns="http://www.w3.org/2000/svg" xmlns:vectornator="http://vectornator.io" xmlns:xlink="http://www.w3.org/1999/xlink">
<defs/>
<path d="M0 0L748.44 0L748.44 748.44L0 748.44L0 0Z" fill="#dde7de" fill-rule="nonzero" opacity="1" stroke="none"/>
<g id="Layer-1" vectornator:layerName="Layer 1">
<path d="M95.6959 90.72L652.744 90.72C655.492 90.72 657.72 92.9586 657.72 95.72L657.72 187.78C657.72 190.541 655.492 192.78 652.744 192.78L95.6959 192.78C92.9478 192.78 90.72 190.541 90.72 187.78L90.72 95.72C90.72 92.9586 92.9478 90.72 95.6959 90.72Z" fill="#f3f3f3" fill-rule="nonzero" opacity="1" stroke="#9ad7a4" stroke-linecap="butt" stroke-linejoin="round" stroke-width="4"/>
<g opacity="1">
<path d="M93.72 238.14L314.52 238.14C316.177 238.14 317.52 239.483 317.52 241.14L317.52 280.5C317.52 282.157 316.177 283.5 314.52 283.5L93.72 283.5C92.0631 283.5 90.72 282.157 90.72 280.5L90.72 241.14C90.72 239.483 92.0631 238.14 93.72 238.14Z" fill="#9ad7a4" fill-rule="nonzero" opacity="1" stroke="#9ad7a4" stroke-linecap="butt" stroke-linejoin="round" stroke-width="4"/>
<path d="M93.72 306.18L541.32 306.18C542.977 306.18 544.32 307.523 544.32 309.18L544.32 371.22C544.32 372.877 542.977 374.22 541.32 374.22L93.72 374.22C92.0631 374.22 90.72 372.877 90.72 371.22L90.72 309.18C90.72 307.523 92.0631 306.18 93.72 306.18Z" fill="#9ad7a4" fill-rule="nonzero" opacity="1" stroke="#9ad7a4" stroke-linecap="butt" stroke-linejoin="round" stroke-width="4"/>
</g>
<g opacity="1">
<path d="M93.72 399.735L314.52 399.735C316.177 399.735 317.52 401.078 317.52 402.735L317.52 442.095C317.52 443.752 316.177 445.095 314.52 445.095L93.72 445.095C92.0631 445.095 90.72 443.752 90.72 442.095L90.72 402.735C90.72 401.078 92.0631 399.735 93.72 399.735Z" fill="#9ad7a4" fill-rule="nonzero" opacity="1" stroke="#9ad7a4" stroke-linecap="butt" stroke-linejoin="round" stroke-width="4"/>
<path d="M93.72 467.775L541.32 467.775C542.977 467.775 544.32 469.118 544.32 470.775L544.32 532.815C544.32 534.472 542.977 535.815 541.32 535.815L93.72 535.815C92.0631 535.815 90.72 534.472 90.72 532.815L90.72 470.775C90.72 469.118 92.0631 467.775 93.72 467.775Z" fill="#9ad7a4" fill-rule="nonzero" opacity="1" stroke="#9ad7a4" stroke-linecap="butt" stroke-linejoin="round" stroke-width="4"/>
</g>
<g opacity="1">
<path d="M93.72 561.33L314.52 561.33C316.177 561.33 317.52 562.673 317.52 564.33L317.52 603.69C317.52 605.347 316.177 606.69 314.52 606.69L93.72 606.69C92.0631 606.69 90.72 605.347 90.72 603.69L90.72 564.33C90.72 562.673 92.0631 561.33 93.72 561.33Z" fill="#9ad7a4" fill-rule="nonzero" opacity="1" stroke="#9ad7a4" stroke-linecap="butt" stroke-linejoin="round" stroke-width="4"/>
<path d="M93.72 629.37L541.32 629.37C542.977 629.37 544.32 630.713 544.32 632.37L544.32 694.41C544.32 696.067 542.977 697.41 541.32 697.41L93.72 697.41C92.0631 697.41 90.72 696.067 90.72 694.41L90.72 632.37C90.72 630.713 92.0631 629.37 93.72 629.37Z" fill="#9ad7a4" fill-rule="nonzero" opacity="1" stroke="#9ad7a4" stroke-linecap="butt" stroke-linejoin="round" stroke-width="4"/>
</g>
<path d="M148.499 115.324L148.499 124.5L132.995 124.5L132.995 167.145L122.097 167.145L122.097 124.5L106.522 124.5L106.522 115.324L148.499 115.324Z" fill="#9ad7a4" opacity="1" stroke="none"/>
</g>
</svg>
