<?xml version="1.0" encoding="UTF-8" standalone="no"?>
<!DOCTYPE svg PUBLIC "-//W3C//DTD SVG 1.1//EN" "http://www.w3.org/Graphics/SVG/1.1/DTD/svg11.dtd">
<!-- Created with Vectornator (http://vectornator.io/) -->
<svg height="100%" stroke-miterlimit="10" style="fill-rule:nonzero;clip-rule:evenodd;stroke-linecap:round;stroke-linejoin:round;" version="1.1" viewBox="0 0 748.44 748.44" width="100%" xml:space="preserve" xmlns="http://www.w3.org/2000/svg" xmlns:vectornator="http://vectornator.io" xmlns:xlink="http://www.w3.org/1999/xlink">
<defs/>
<path d="M0 0L748.44 0L748.44 748.44L0 748.44L0 0Z" fill="#f3d9d8" fill-rule="nonzero" opacity="1" stroke="none"/>
<g id="Layer-1" vectornator:layerName="Layer 1"/>
<g id="Layer-2" vectornator:layerName="Layer 2">
<g opacity="1">
<path d="M93.72 156.76L541.32 156.76C542.977 156.76 544.32 158.103 544.32 159.76L544.32 221.8C544.32 223.457 542.977 224.8 541.32 224.8L93.72 224.8C92.0631 224.8 90.72 223.457 90.72 221.8L90.72 159.76C90.72 158.103 92.0631 156.76 93.72 156.76Z" fill="#ffffff" fill-rule="nonzero" opacity="1" stroke="#fcada9" stroke-linecap="butt" stroke-linejoin="round" stroke-width="4"/>
<g fill="#626262" opacity="1" stroke="none">
<path d="M112.139 98.6887L112.139 102.767L105.248 102.767L105.248 121.72L100.405 121.72L100.405 102.767L93.4827 102.767L93.4827 98.6887L112.139 98.6887Z"/>
<path d="M126.811 116.72C126.696 117.73 126.17 118.756 125.233 119.798C123.774 121.454 121.733 122.282 119.108 122.282C116.941 122.282 115.03 121.585 113.373 120.189C111.717 118.793 110.889 116.522 110.889 113.376C110.889 110.428 111.636 108.168 113.131 106.595C114.626 105.022 116.566 104.236 118.951 104.236C120.368 104.236 121.644 104.501 122.78 105.032C123.915 105.564 124.853 106.402 125.592 107.548C126.259 108.559 126.691 109.73 126.889 111.064C127.004 111.845 127.05 112.97 127.03 114.439L115.373 114.439C115.436 116.147 115.972 117.345 116.983 118.032C117.597 118.46 118.337 118.673 119.201 118.673C120.118 118.673 120.863 118.413 121.436 117.892C121.748 117.611 122.024 117.22 122.264 116.72L126.811 116.72ZM122.405 111.501C122.332 110.324 121.975 109.431 121.334 108.822C120.694 108.212 119.899 107.907 118.951 107.907C117.92 107.907 117.121 108.23 116.553 108.876C115.985 109.522 115.629 110.397 115.483 111.501L122.405 111.501Z"/>
<path d="M145.201 121.72L139.655 121.72L136.717 116.611L133.764 121.72L128.358 121.72L134.17 113.095L128.608 104.72L134.061 104.72L136.905 109.657L139.686 104.72L144.983 104.72L139.389 113.017L145.201 121.72Z"/>
<path d="M155.623 118.548L155.623 121.876L153.514 121.954C151.41 122.027 149.972 121.663 149.201 120.861C148.701 120.35 148.451 119.564 148.451 118.501L148.451 108.017L146.076 108.017L146.076 104.845L148.451 104.845L148.451 100.095L152.858 100.095L152.858 104.845L155.623 104.845L155.623 108.017L152.858 108.017L152.858 117.017C152.858 117.715 152.946 118.15 153.123 118.322C153.3 118.493 153.842 118.579 154.748 118.579C154.884 118.579 155.027 118.577 155.178 118.572C155.329 118.566 155.478 118.559 155.623 118.548Z"/>
<path d="M163.764 121.72L159.326 121.72L159.326 107.986L156.842 107.986L156.842 104.845L159.28 104.845L159.28 103.751C159.28 101.939 159.681 100.59 160.483 99.7044C161.201 98.871 162.665 98.4544 164.873 98.4544C165.144 98.4544 165.42 98.4648 165.701 98.4856C165.983 98.5065 166.274 98.5273 166.576 98.5481L166.576 102.173C166.368 102.163 166.165 102.155 165.967 102.15C165.769 102.144 165.53 102.142 165.248 102.142C164.55 102.142 164.123 102.335 163.967 102.72C163.811 103.105 163.743 103.71 163.764 104.532L163.764 104.845L166.686 104.845L166.686 107.986L163.764 107.986L163.764 121.72ZM173.764 104.767L173.764 121.72L169.326 121.72L169.326 104.767L173.764 104.767ZM169.326 102.611L169.326 98.5481L173.686 98.5481L173.686 102.611L169.326 102.611Z"/>
<path d="M192.608 116.72C192.493 117.73 191.967 118.756 191.03 119.798C189.571 121.454 187.53 122.282 184.905 122.282C182.738 122.282 180.826 121.585 179.17 120.189C177.514 118.793 176.686 116.522 176.686 113.376C176.686 110.428 177.433 108.168 178.928 106.595C180.423 105.022 182.363 104.236 184.748 104.236C186.165 104.236 187.441 104.501 188.576 105.032C189.712 105.564 190.649 106.402 191.389 107.548C192.056 108.559 192.488 109.73 192.686 111.064C192.8 111.845 192.847 112.97 192.826 114.439L181.17 114.439C181.233 116.147 181.769 117.345 182.78 118.032C183.394 118.46 184.134 118.673 184.998 118.673C185.915 118.673 186.66 118.413 187.233 117.892C187.545 117.611 187.821 117.22 188.061 116.72L192.608 116.72ZM188.201 111.501C188.129 110.324 187.772 109.431 187.131 108.822C186.491 108.212 185.696 107.907 184.748 107.907C183.717 107.907 182.918 108.23 182.35 108.876C181.782 109.522 181.425 110.397 181.28 111.501L188.201 111.501Z"/>
<path d="M195.92 98.6887L200.373 98.6887L200.373 121.72L195.92 121.72L195.92 98.6887Z"/>
<path d="M220.217 98.72L220.217 121.72L215.889 121.72L215.889 119.361C215.254 120.371 214.53 121.105 213.717 121.564C212.905 122.022 211.894 122.251 210.686 122.251C208.696 122.251 207.022 121.447 205.662 119.837C204.303 118.228 203.623 116.163 203.623 113.642C203.623 110.736 204.293 108.449 205.631 106.782C206.97 105.116 208.759 104.282 210.998 104.282C212.03 104.282 212.946 104.509 213.748 104.962C214.55 105.415 215.201 106.043 215.701 106.845L215.701 98.72L220.217 98.72ZM208.217 113.314C208.217 114.887 208.53 116.142 209.155 117.079C209.769 118.027 210.707 118.501 211.967 118.501C213.228 118.501 214.186 118.033 214.842 117.095C215.498 116.157 215.826 114.944 215.826 113.454C215.826 111.371 215.3 109.881 214.248 108.986C213.603 108.444 212.853 108.173 211.998 108.173C210.696 108.173 209.741 108.665 209.131 109.65C208.522 110.634 208.217 111.855 208.217 113.314Z"/>
</g>
</g>
<g opacity="1">
<path d="M196.366 351.54L643.966 351.54C645.623 351.54 646.966 352.883 646.966 354.54L646.966 416.58C646.966 418.237 645.623 419.58 643.966 419.58L196.366 419.58C194.709 419.58 193.366 418.237 193.366 416.58L193.366 354.54C193.366 352.883 194.709 351.54 196.366 351.54Z" fill="#ffffff" fill-rule="nonzero" opacity="1" stroke="#fcada9" stroke-linecap="butt" stroke-linejoin="round" stroke-width="4"/>
<path d="M193.214 428.738L646.814 428.738L646.814 636.712L193.214 636.712L193.214 428.738Z" fill="#ffffff" fill-rule="nonzero" opacity="1" stroke="#898786" stroke-linecap="butt" stroke-linejoin="round" stroke-width="1"/>
<path d="M646.814 568.5L192.78 568.5" fill="none" opacity="1" stroke="#898786" stroke-linecap="butt" stroke-linejoin="round" stroke-width="1"/>
<path d="M646.814 499.5L192.78 499.5" fill="none" opacity="1" stroke="#898786" stroke-linecap="butt" stroke-linejoin="round" stroke-width="1"/>
<g fill="#626262" opacity="1" stroke="none">
<path d="M205.378 311.172C206.513 311.172 207.435 311.047 208.144 310.797C209.487 310.318 210.159 309.427 210.159 308.125C210.159 307.365 209.826 306.776 209.159 306.359C208.493 305.953 207.446 305.594 206.019 305.281L203.581 304.734C201.185 304.193 199.529 303.604 198.612 302.969C197.06 301.906 196.284 300.245 196.284 297.984C196.284 295.922 197.034 294.208 198.534 292.844C200.034 291.479 202.237 290.797 205.144 290.797C207.571 290.797 209.641 291.44 211.355 292.727C213.068 294.013 213.966 295.88 214.05 298.328L209.425 298.328C209.341 296.943 208.737 295.958 207.612 295.375C206.862 294.99 205.93 294.797 204.815 294.797C203.576 294.797 202.586 295.047 201.847 295.547C201.107 296.047 200.737 296.745 200.737 297.641C200.737 298.464 201.102 299.078 201.831 299.484C202.3 299.755 203.3 300.073 204.831 300.438L208.8 301.391C210.539 301.807 211.852 302.365 212.737 303.062C214.112 304.146 214.8 305.714 214.8 307.766C214.8 309.87 213.995 311.617 212.386 313.008C210.776 314.398 208.503 315.094 205.565 315.094C202.565 315.094 200.206 314.409 198.487 313.039C196.769 311.669 195.909 309.786 195.909 307.391L200.503 307.391C200.649 308.443 200.935 309.229 201.362 309.75C202.144 310.698 203.482 311.172 205.378 311.172Z"/>
<path d="M232.581 309.5C232.466 310.51 231.94 311.536 231.003 312.578C229.545 314.234 227.503 315.062 224.878 315.062C222.711 315.062 220.8 314.365 219.144 312.969C217.487 311.573 216.659 309.302 216.659 306.156C216.659 303.208 217.407 300.948 218.901 299.375C220.396 297.802 222.336 297.016 224.722 297.016C226.138 297.016 227.414 297.281 228.55 297.812C229.685 298.344 230.623 299.182 231.362 300.328C232.029 301.339 232.461 302.51 232.659 303.844C232.774 304.625 232.821 305.75 232.8 307.219L221.144 307.219C221.206 308.927 221.743 310.125 222.753 310.812C223.368 311.24 224.107 311.453 224.972 311.453C225.888 311.453 226.633 311.193 227.206 310.672C227.519 310.391 227.795 310 228.034 309.5L232.581 309.5ZM228.175 304.281C228.102 303.104 227.745 302.211 227.105 301.602C226.464 300.992 225.67 300.688 224.722 300.688C223.69 300.688 222.891 301.01 222.323 301.656C221.756 302.302 221.399 303.177 221.253 304.281L228.175 304.281Z"/>
<path d="M235.894 291.469L240.347 291.469L240.347 314.5L235.894 314.5L235.894 291.469Z"/>
<path d="M259.269 309.5C259.154 310.51 258.628 311.536 257.69 312.578C256.232 314.234 254.19 315.062 251.565 315.062C249.399 315.062 247.487 314.365 245.831 312.969C244.175 311.573 243.347 309.302 243.347 306.156C243.347 303.208 244.094 300.948 245.589 299.375C247.084 297.802 249.024 297.016 251.409 297.016C252.826 297.016 254.102 297.281 255.237 297.812C256.373 298.344 257.31 299.182 258.05 300.328C258.716 301.339 259.149 302.51 259.347 303.844C259.461 304.625 259.508 305.75 259.487 307.219L247.831 307.219C247.894 308.927 248.43 310.125 249.44 310.812C250.055 311.24 250.795 311.453 251.659 311.453C252.576 311.453 253.321 311.193 253.894 310.672C254.206 310.391 254.482 310 254.722 309.5L259.269 309.5ZM254.862 304.281C254.789 303.104 254.433 302.211 253.792 301.602C253.151 300.992 252.357 300.688 251.409 300.688C250.378 300.688 249.578 301.01 249.011 301.656C248.443 302.302 248.086 303.177 247.94 304.281L254.862 304.281Z"/>
<path d="M277.222 303.578L272.659 303.578C272.576 302.943 272.362 302.37 272.019 301.859C271.519 301.172 270.743 300.828 269.69 300.828C268.19 300.828 267.164 301.573 266.612 303.062C266.321 303.854 266.175 304.906 266.175 306.219C266.175 307.469 266.321 308.474 266.612 309.234C267.144 310.651 268.144 311.359 269.612 311.359C270.654 311.359 271.394 311.078 271.831 310.516C272.269 309.953 272.534 309.224 272.628 308.328L277.175 308.328C277.071 309.682 276.581 310.964 275.706 312.172C274.31 314.12 272.243 315.094 269.503 315.094C266.763 315.094 264.748 314.281 263.456 312.656C262.164 311.031 261.519 308.922 261.519 306.328C261.519 303.401 262.232 301.125 263.659 299.5C265.086 297.875 267.055 297.062 269.565 297.062C271.701 297.062 273.448 297.542 274.808 298.5C276.167 299.458 276.972 301.151 277.222 303.578Z"/>
<path d="M288.081 311.328L288.081 314.656L285.972 314.734C283.868 314.807 282.43 314.443 281.659 313.641C281.159 313.13 280.909 312.344 280.909 311.281L280.909 300.797L278.534 300.797L278.534 297.625L280.909 297.625L280.909 292.875L285.315 292.875L285.315 297.625L288.081 297.625L288.081 300.797L285.315 300.797L285.315 309.797C285.315 310.495 285.404 310.93 285.581 311.102C285.758 311.273 286.3 311.359 287.206 311.359C287.341 311.359 287.485 311.357 287.636 311.352C287.787 311.346 287.935 311.339 288.081 311.328Z"/>
</g>
<g fill="#626262" opacity="1" stroke="none">
<path d="M224.501 473.191C221.209 473.191 218.694 472.295 216.954 470.504C214.621 468.306 213.454 465.139 213.454 461.004C213.454 456.785 214.621 453.618 216.954 451.504C218.694 449.712 221.209 448.816 224.501 448.816C227.792 448.816 230.308 449.712 232.048 451.504C234.371 453.618 235.532 456.785 235.532 461.004C235.532 465.139 234.371 468.306 232.048 470.504C230.308 472.295 227.792 473.191 224.501 473.191ZM229.048 467.004C230.162 465.598 230.72 463.598 230.72 461.004C230.72 458.42 230.16 456.423 229.04 455.012C227.92 453.6 226.407 452.894 224.501 452.894C222.595 452.894 221.074 453.598 219.938 455.004C218.803 456.41 218.235 458.41 218.235 461.004C218.235 463.598 218.803 465.598 219.938 467.004C221.074 468.41 222.595 469.113 224.501 469.113C226.407 469.113 227.923 468.41 229.048 467.004Z"/>
<path d="M253.11 457.348C254.485 458.816 255.173 460.973 255.173 463.816C255.173 466.816 254.498 469.103 253.149 470.676C251.8 472.249 250.063 473.035 247.938 473.035C246.584 473.035 245.459 472.697 244.563 472.019C244.074 471.644 243.595 471.098 243.126 470.379L243.126 479.254L238.72 479.254L238.72 455.519L242.985 455.519L242.985 458.035C243.464 457.295 243.975 456.712 244.516 456.285C245.506 455.525 246.683 455.144 248.048 455.144C250.037 455.144 251.725 455.879 253.11 457.348ZM250.579 464.035C250.579 462.723 250.279 461.561 249.68 460.551C249.082 459.54 248.11 459.035 246.766 459.035C245.152 459.035 244.042 459.801 243.438 461.332C243.126 462.144 242.97 463.176 242.97 464.426C242.97 466.405 243.496 467.795 244.548 468.598C245.173 469.066 245.912 469.301 246.766 469.301C248.006 469.301 248.951 468.822 249.602 467.863C250.253 466.905 250.579 465.629 250.579 464.035Z"/>
<path d="M266.188 469.379L266.188 472.707L264.079 472.785C261.975 472.858 260.537 472.493 259.766 471.691C259.266 471.181 259.016 470.394 259.016 469.332L259.016 458.848L256.641 458.848L256.641 455.676L259.016 455.676L259.016 450.926L263.423 450.926L263.423 455.676L266.188 455.676L266.188 458.848L263.423 458.848L263.423 467.848C263.423 468.545 263.511 468.98 263.688 469.152C263.865 469.324 264.407 469.41 265.313 469.41C265.449 469.41 265.592 469.407 265.743 469.402C265.894 469.397 266.042 469.389 266.188 469.379Z"/>
<path d="M273.626 455.519L273.626 472.551L269.11 472.551L269.11 455.519L273.626 455.519ZM273.626 449.379L273.626 453.488L269.11 453.488L269.11 449.379L273.626 449.379Z"/>
<path d="M292.141 457.676C293.579 459.478 294.298 461.608 294.298 464.066C294.298 466.566 293.579 468.704 292.141 470.48C290.704 472.256 288.522 473.144 285.595 473.144C282.667 473.144 280.485 472.256 279.048 470.48C277.61 468.704 276.891 466.566 276.891 464.066C276.891 461.608 277.61 459.478 279.048 457.676C280.485 455.874 282.667 454.973 285.595 454.973C288.522 454.973 290.704 455.874 292.141 457.676ZM285.579 458.738C284.277 458.738 283.274 459.199 282.571 460.121C281.868 461.043 281.516 462.358 281.516 464.066C281.516 465.775 281.868 467.092 282.571 468.019C283.274 468.947 284.277 469.41 285.579 469.41C286.881 469.41 287.881 468.947 288.579 468.019C289.277 467.092 289.626 465.775 289.626 464.066C289.626 462.358 289.277 461.043 288.579 460.121C287.881 459.199 286.881 458.738 285.579 458.738Z"/>
<path d="M305.501 458.816C303.99 458.816 302.954 459.457 302.391 460.738C302.1 461.415 301.954 462.28 301.954 463.332L301.954 472.551L297.516 472.551L297.516 455.551L301.813 455.551L301.813 458.035C302.386 457.16 302.928 456.53 303.438 456.144C304.355 455.457 305.516 455.113 306.923 455.113C308.683 455.113 310.123 455.574 311.243 456.496C312.363 457.418 312.923 458.947 312.923 461.082L312.923 472.551L308.36 472.551L308.36 462.191C308.36 461.295 308.24 460.608 308.001 460.129C307.563 459.254 306.73 458.816 305.501 458.816Z"/>
<path d="M335.954 472.551L331.391 472.551L331.391 456.926L326.063 456.926L326.063 453.894C327.47 453.832 328.454 453.738 329.016 453.613C329.912 453.415 330.641 453.019 331.204 452.426C331.589 452.019 331.881 451.478 332.079 450.801C332.194 450.394 332.251 450.092 332.251 449.894L335.954 449.894L335.954 472.551Z"/>
</g>
<g fill="#626262" opacity="1" stroke="none">
<path d="M224.501 541.706C221.209 541.706 218.694 540.81 216.954 539.018C214.621 536.821 213.454 533.654 213.454 529.518C213.454 525.3 214.621 522.133 216.954 520.018C218.694 518.227 221.209 517.331 224.501 517.331C227.792 517.331 230.308 518.227 232.048 520.018C234.371 522.133 235.532 525.3 235.532 529.518C235.532 533.654 234.371 536.821 232.048 539.018C230.308 540.81 227.792 541.706 224.501 541.706ZM229.048 535.518C230.162 534.112 230.72 532.112 230.72 529.518C230.72 526.935 230.16 524.938 229.04 523.526C227.92 522.115 226.407 521.409 224.501 521.409C222.595 521.409 221.074 522.112 219.938 523.518C218.803 524.925 218.235 526.925 218.235 529.518C218.235 532.112 218.803 534.112 219.938 535.518C221.074 536.925 222.595 537.628 224.501 537.628C226.407 537.628 227.923 536.925 229.048 535.518Z"/>
<path d="M253.11 525.862C254.485 527.331 255.173 529.487 255.173 532.331C255.173 535.331 254.498 537.617 253.149 539.19C251.8 540.763 250.063 541.55 247.938 541.55C246.584 541.55 245.459 541.211 244.563 540.534C244.074 540.159 243.595 539.612 243.126 538.893L243.126 547.768L238.72 547.768L238.72 524.034L242.985 524.034L242.985 526.55C243.464 525.81 243.975 525.227 244.516 524.8C245.506 524.039 246.683 523.659 248.048 523.659C250.037 523.659 251.725 524.393 253.11 525.862ZM250.579 532.55C250.579 531.237 250.279 530.076 249.68 529.065C249.082 528.055 248.11 527.55 246.766 527.55C245.152 527.55 244.042 528.315 243.438 529.847C243.126 530.659 242.97 531.69 242.97 532.94C242.97 534.919 243.496 536.31 244.548 537.112C245.173 537.581 245.912 537.815 246.766 537.815C248.006 537.815 248.951 537.336 249.602 536.378C250.253 535.419 250.579 534.143 250.579 532.55Z"/>
<path d="M266.188 537.893L266.188 541.222L264.079 541.3C261.975 541.373 260.537 541.008 259.766 540.206C259.266 539.696 259.016 538.909 259.016 537.847L259.016 527.362L256.641 527.362L256.641 524.19L259.016 524.19L259.016 519.44L263.423 519.44L263.423 524.19L266.188 524.19L266.188 527.362L263.423 527.362L263.423 536.362C263.423 537.06 263.511 537.495 263.688 537.667C263.865 537.839 264.407 537.925 265.313 537.925C265.449 537.925 265.592 537.922 265.743 537.917C265.894 537.912 266.042 537.904 266.188 537.893Z"/>
<path d="M273.626 524.034L273.626 541.065L269.11 541.065L269.11 524.034L273.626 524.034ZM273.626 517.893L273.626 522.003L269.11 522.003L269.11 517.893L273.626 517.893Z"/>
<path d="M292.141 526.19C293.579 527.992 294.298 530.123 294.298 532.581C294.298 535.081 293.579 537.219 292.141 538.995C290.704 540.771 288.522 541.659 285.595 541.659C282.667 541.659 280.485 540.771 279.048 538.995C277.61 537.219 276.891 535.081 276.891 532.581C276.891 530.123 277.61 527.992 279.048 526.19C280.485 524.388 282.667 523.487 285.595 523.487C288.522 523.487 290.704 524.388 292.141 526.19ZM285.579 527.253C284.277 527.253 283.274 527.714 282.571 528.636C281.868 529.558 281.516 530.873 281.516 532.581C281.516 534.289 281.868 535.607 282.571 536.534C283.274 537.461 284.277 537.925 285.579 537.925C286.881 537.925 287.881 537.461 288.579 536.534C289.277 535.607 289.626 534.289 289.626 532.581C289.626 530.873 289.277 529.558 288.579 528.636C287.881 527.714 286.881 527.253 285.579 527.253Z"/>
<path d="M305.501 527.331C303.99 527.331 302.954 527.972 302.391 529.253C302.1 529.93 301.954 530.794 301.954 531.847L301.954 541.065L297.516 541.065L297.516 524.065L301.813 524.065L301.813 526.55C302.386 525.675 302.928 525.044 303.438 524.659C304.355 523.972 305.516 523.628 306.923 523.628C308.683 523.628 310.123 524.089 311.243 525.011C312.363 525.933 312.923 527.461 312.923 529.597L312.923 541.065L308.36 541.065L308.36 530.706C308.36 529.81 308.24 529.123 308.001 528.643C307.563 527.768 306.73 527.331 305.501 527.331Z"/>
<path d="M334.97 523.018C334.438 522.383 333.678 522.065 332.688 522.065C331.334 522.065 330.412 522.571 329.923 523.581C329.641 524.164 329.475 525.091 329.423 526.362L325.095 526.362C325.167 524.435 325.516 522.878 326.141 521.69C327.329 519.43 329.438 518.3 332.47 518.3C334.865 518.3 336.772 518.964 338.188 520.292C339.605 521.62 340.313 523.378 340.313 525.565C340.313 527.242 339.813 528.732 338.813 530.034C338.157 530.899 337.079 531.862 335.579 532.925L333.798 534.19C332.683 534.982 331.92 535.555 331.509 535.909C331.097 536.263 330.751 536.675 330.47 537.143L340.36 537.143L340.36 541.065L324.845 541.065C324.886 539.44 325.235 537.956 325.891 536.612C326.527 535.102 328.027 533.503 330.391 531.815C332.444 530.347 333.772 529.294 334.376 528.659C335.303 527.669 335.766 526.586 335.766 525.409C335.766 524.451 335.501 523.654 334.97 523.018Z"/>
</g>
<g fill="#626262" opacity="1" stroke="none">
<path d="M224.501 609.253C221.209 609.253 218.694 608.358 216.954 606.566C214.621 604.368 213.454 601.201 213.454 597.066C213.454 592.847 214.621 589.681 216.954 587.566C218.694 585.774 221.209 584.878 224.501 584.878C227.792 584.878 230.308 585.774 232.048 587.566C234.371 589.681 235.532 592.847 235.532 597.066C235.532 601.201 234.371 604.368 232.048 606.566C230.308 608.358 227.792 609.253 224.501 609.253ZM229.048 603.066C230.162 601.66 230.72 599.66 230.72 597.066C230.72 594.483 230.16 592.485 229.04 591.074C227.92 589.662 226.407 588.957 224.501 588.957C222.595 588.957 221.074 589.66 219.938 591.066C218.803 592.472 218.235 594.472 218.235 597.066C218.235 599.66 218.803 601.66 219.938 603.066C221.074 604.472 222.595 605.175 224.501 605.175C226.407 605.175 227.923 604.472 229.048 603.066Z"/>
<path d="M253.11 593.41C254.485 594.878 255.173 597.035 255.173 599.878C255.173 602.878 254.498 605.165 253.149 606.738C251.8 608.311 250.063 609.097 247.938 609.097C246.584 609.097 245.459 608.759 244.563 608.082C244.074 607.707 243.595 607.16 243.126 606.441L243.126 615.316L238.72 615.316L238.72 591.582L242.985 591.582L242.985 594.097C243.464 593.358 243.975 592.774 244.516 592.347C245.506 591.587 246.683 591.207 248.048 591.207C250.037 591.207 251.725 591.941 253.11 593.41ZM250.579 600.097C250.579 598.785 250.279 597.623 249.68 596.613C249.082 595.602 248.11 595.097 246.766 595.097C245.152 595.097 244.042 595.863 243.438 597.394C243.126 598.207 242.97 599.238 242.97 600.488C242.97 602.467 243.496 603.858 244.548 604.66C245.173 605.128 245.912 605.363 246.766 605.363C248.006 605.363 248.951 604.884 249.602 603.925C250.253 602.967 250.579 601.691 250.579 600.097Z"/>
<path d="M266.188 605.441L266.188 608.769L264.079 608.847C261.975 608.92 260.537 608.556 259.766 607.753C259.266 607.243 259.016 606.457 259.016 605.394L259.016 594.91L256.641 594.91L256.641 591.738L259.016 591.738L259.016 586.988L263.423 586.988L263.423 591.738L266.188 591.738L266.188 594.91L263.423 594.91L263.423 603.91C263.423 604.608 263.511 605.042 263.688 605.214C263.865 605.386 264.407 605.472 265.313 605.472C265.449 605.472 265.592 605.47 265.743 605.464C265.894 605.459 266.042 605.451 266.188 605.441Z"/>
<path d="M273.626 591.582L273.626 608.613L269.11 608.613L269.11 591.582L273.626 591.582ZM273.626 585.441L273.626 589.55L269.11 589.55L269.11 585.441L273.626 585.441Z"/>
<path d="M292.141 593.738C293.579 595.54 294.298 597.67 294.298 600.128C294.298 602.628 293.579 604.766 292.141 606.542C290.704 608.319 288.522 609.207 285.595 609.207C282.667 609.207 280.485 608.319 279.048 606.542C277.61 604.766 276.891 602.628 276.891 600.128C276.891 597.67 277.61 595.54 279.048 593.738C280.485 591.936 282.667 591.035 285.595 591.035C288.522 591.035 290.704 591.936 292.141 593.738ZM285.579 594.8C284.277 594.8 283.274 595.261 282.571 596.183C281.868 597.105 281.516 598.42 281.516 600.128C281.516 601.837 281.868 603.154 282.571 604.082C283.274 605.009 284.277 605.472 285.579 605.472C286.881 605.472 287.881 605.009 288.579 604.082C289.277 603.154 289.626 601.837 289.626 600.128C289.626 598.42 289.277 597.105 288.579 596.183C287.881 595.261 286.881 594.8 285.579 594.8Z"/>
<path d="M305.501 594.878C303.99 594.878 302.954 595.519 302.391 596.8C302.1 597.477 301.954 598.342 301.954 599.394L301.954 608.613L297.516 608.613L297.516 591.613L301.813 591.613L301.813 594.097C302.386 593.222 302.928 592.592 303.438 592.207C304.355 591.519 305.516 591.175 306.923 591.175C308.683 591.175 310.123 591.636 311.243 592.558C312.363 593.48 312.923 595.009 312.923 597.144L312.923 608.613L308.36 608.613L308.36 598.253C308.36 597.358 308.24 596.67 308.001 596.191C307.563 595.316 306.73 594.878 305.501 594.878Z"/>
<path d="M329.97 590.472C329.47 591.139 329.23 592.029 329.251 593.144L325.095 593.144C325.136 592.019 325.329 590.951 325.673 589.941C326.037 589.056 326.61 588.238 327.391 587.488C327.975 586.957 328.667 586.55 329.47 586.269C330.272 585.988 331.256 585.847 332.423 585.847C334.589 585.847 336.337 586.407 337.665 587.527C338.993 588.647 339.657 590.149 339.657 592.035C339.657 593.368 339.261 594.493 338.47 595.41C337.97 595.983 337.449 596.373 336.907 596.582C337.313 596.582 337.897 596.931 338.657 597.628C339.792 598.681 340.36 600.118 340.36 601.941C340.36 603.858 339.696 605.542 338.368 606.996C337.04 608.449 335.074 609.175 332.47 609.175C329.261 609.175 327.032 608.128 325.782 606.035C325.126 604.92 324.761 603.462 324.688 601.66L329.063 601.66C329.063 602.566 329.209 603.316 329.501 603.91C330.042 605.003 331.027 605.55 332.454 605.55C333.329 605.55 334.092 605.251 334.743 604.652C335.394 604.053 335.72 603.191 335.72 602.066C335.72 600.576 335.115 599.582 333.907 599.082C333.22 598.8 332.136 598.66 330.657 598.66L330.657 595.472C332.105 595.451 333.115 595.311 333.688 595.05C334.678 594.613 335.173 593.727 335.173 592.394C335.173 591.529 334.92 590.826 334.415 590.285C333.91 589.743 333.199 589.472 332.282 589.472C331.23 589.472 330.459 589.806 329.97 590.472Z"/>
</g>
</g>
</g>
</svg>
