<?xml version="1.0" encoding="UTF-8" standalone="no"?>
<!DOCTYPE svg PUBLIC "-//W3C//DTD SVG 1.1//EN" "http://www.w3.org/Graphics/SVG/1.1/DTD/svg11.dtd">
<!-- Created with Vectornator (http://vectornator.io/) -->
<svg height="100%" stroke-miterlimit="10" style="fill-rule:nonzero;clip-rule:evenodd;stroke-linecap:round;stroke-linejoin:round;" version="1.1" viewBox="0 0 748.44 748.44" width="100%" xml:space="preserve" xmlns="http://www.w3.org/2000/svg" xmlns:vectornator="http://vectornator.io" xmlns:xlink="http://www.w3.org/1999/xlink">
<defs/>
<path d="M0 0L748.44 0L748.44 748.44L0 748.44L0 0Z" fill="#e4d6e7" fill-rule="nonzero" opacity="1" stroke="none"/>
<g id="Layer-1" vectornator:layerName="Layer 1"/>
<g id="Layer-2" vectornator:layerName="Layer 2">
<path d="M93.72 232.47L541.32 232.47C542.977 232.47 544.32 233.813 544.32 235.47L544.32 297.51C544.32 299.167 542.977 300.51 541.32 300.51L93.72 300.51C92.0631 300.51 90.72 299.167 90.72 297.51L90.72 235.47C90.72 233.813 92.0631 232.47 93.72 232.47Z" fill="#dab3e5" fill-rule="nonzero" opacity="1" stroke="#dab3e5" stroke-linecap="butt" stroke-linejoin="round" stroke-width="4"/>
<path d="M156.09 345.87L603.69 345.87C605.347 345.87 606.69 347.213 606.69 348.87L606.69 410.91C606.69 412.567 605.347 413.91 603.69 413.91L156.09 413.91C154.433 413.91 153.09 412.567 153.09 410.91L153.09 348.87C153.09 347.213 154.433 345.87 156.09 345.87Z" fill="#dab3e5" fill-rule="nonzero" opacity="1" stroke="#dab3e5" stroke-linecap="butt" stroke-linejoin="round" stroke-width="4"/>
<path d="M201.45 459.27L649.05 459.27C650.707 459.27 652.05 460.613 652.05 462.27L652.05 524.31C652.05 525.967 650.707 527.31 649.05 527.31L201.45 527.31C199.793 527.31 198.45 525.967 198.45 524.31L198.45 462.27C198.45 460.613 199.793 459.27 201.45 459.27Z" fill="#dab3e5" fill-rule="nonzero" opacity="1" stroke="#dab3e5" stroke-linecap="butt" stroke-linejoin="round" stroke-width="4"/>
<path d="M201.45 572.67L649.05 572.67C650.707 572.67 652.05 574.013 652.05 575.67L652.05 637.71C652.05 639.367 650.707 640.71 649.05 640.71L201.45 640.71C199.793 640.71 198.45 639.367 198.45 637.71L198.45 575.67C198.45 574.013 199.793 572.67 201.45 572.67Z" fill="#dab3e5" fill-rule="nonzero" opacity="1" stroke="#dab3e5" stroke-linecap="butt" stroke-linejoin="round" stroke-width="4"/>
<path d="M93.72 119.07L541.32 119.07C542.977 119.07 544.32 120.413 544.32 122.07L544.32 184.11C544.32 185.767 542.977 187.11 541.32 187.11L93.72 187.11C92.0631 187.11 90.72 185.767 90.72 184.11L90.72 122.07C90.72 120.413 92.0631 119.07 93.72 119.07Z" fill="#dab3e5" fill-rule="nonzero" opacity="1" stroke="#dab3e5" stroke-linecap="butt" stroke-linejoin="round" stroke-width="4"/>
</g>
</svg>
